<svg width="19" height="19" viewBox="0 0 19 19" fill="none" xmlns="http://www.w3.org/2000/svg">
<path d="M17.9329 16.4878L12.4259 11.0711C13.2805 9.9844 13.7427 8.65576 13.7427 7.25829C13.7427 5.5855 13.079 4.017 11.8788 2.83437C10.6786 1.65174 9.07969 1.00098 7.38114 1.00098C5.68259 1.00098 4.08371 1.65382 2.88348 2.83437C1.68114 4.01492 1.01953 5.5855 1.01953 7.25829C1.01953 8.929 1.68326 10.5017 2.88348 11.6822C4.08371 12.8649 5.68047 13.5156 7.38114 13.5156C8.8019 13.5156 10.1506 13.0609 11.2554 12.2224L16.7624 17.6371C16.7785 17.653 16.7977 17.6656 16.8188 17.6742C16.8399 17.6828 16.8625 17.6872 16.8854 17.6872C16.9082 17.6872 16.9308 17.6828 16.9519 17.6742C16.9731 17.6656 16.9922 17.653 17.0084 17.6371L17.9329 16.7298C17.9491 16.7139 17.9619 16.695 17.9706 16.6743C17.9794 16.6535 17.9839 16.6313 17.9839 16.6088C17.9839 16.5863 17.9794 16.5641 17.9706 16.5433C17.9619 16.5226 17.9491 16.5037 17.9329 16.4878ZM10.7401 10.5622C9.84096 11.4444 8.64922 11.9304 7.38114 11.9304C6.11306 11.9304 4.92132 11.4444 4.02221 10.5622C3.12522 9.67779 2.63114 8.50559 2.63114 7.25829C2.63114 6.011 3.12522 4.83671 4.02221 3.95443C4.92132 3.07215 6.11306 2.58616 7.38114 2.58616C8.64922 2.58616 9.84308 3.07006 10.7401 3.95443C11.6371 4.8388 12.1311 6.011 12.1311 7.25829C12.1311 8.50559 11.6371 9.67988 10.7401 10.5622Z" fill="currentColor"/>
</svg>
